<svg xmlns="http://www.w3.org/2000/svg" viewBox="0 0 300 300" width="300" height="300">
  <title>Jagged wheel star</title>
  <path d="M 150.00 10.00 L 162.75 28.67 L 179.11 13.06 L 187.70 33.97 L 206.94 22.10 L 211.00 44.34 L 232.29 36.74 L 231.63 59.34 L 254.04 56.32 L 248.70 78.29 L 271.24 80.00 L 261.45 100.38 L 283.15 106.74 L 269.33 124.63 L 289.23 135.37 L 272.00 150.00 L 289.23 164.63 L 269.33 175.37 L 283.15 193.26 L 261.45 199.62 L 271.24 220.00 L 248.70 221.71 L 254.04 243.68 L 231.63 240.66 L 232.29 263.26 L 211.00 255.66 L 206.94 277.90 L 187.70 266.03 L 179.11 286.94 L 162.75 271.33 L 150.00 290.00 L 137.25 271.33 L 120.89 286.94 L 112.30 266.03 L 93.06 277.90 L 89.00 255.66 L 67.71 263.26 L 68.37 240.66 L 45.96 243.68 L 51.30 221.71 L 28.76 220.00 L 38.55 199.62 L 16.85 193.26 L 30.67 175.37 L 10.77 164.63 L 28.00 150.00 L 10.77 135.37 L 30.67 124.63 L 16.85 106.74 L 38.55 100.38 L 28.76 80.00 L 51.30 78.29 L 45.96 56.32 L 68.37 59.34 L 67.71 36.74 L 89.00 44.34 L 93.06 22.10 L 112.30 33.97 L 120.89 13.06 L 137.25 28.67 Z" fill="#ffffff"/>
</svg>
